<svg width="40" height="40" viewBox="0 0 40 40" fill="none" xmlns="http://www.w3.org/2000/svg">
<path d="M30 33.3334C30 30.6812 28.9464 28.1377 27.0711 26.2623C25.1957 24.3869 22.6522 23.3334 20 23.3334C17.3478 23.3334 14.8043 24.3869 12.9289 26.2623C11.0536 28.1377 10 30.6812 10 33.3334" stroke="white" stroke-width="2" stroke-linecap="round" stroke-linejoin="round"/>
<path d="M20 23.3333C23.6819 23.3333 26.6667 20.3486 26.6667 16.6667C26.6667 12.9848 23.6819 10 20 10C16.3181 10 13.3334 12.9848 13.3334 16.6667C13.3334 20.3486 16.3181 23.3333 20 23.3333Z" stroke="white" stroke-width="2" stroke-linecap="round" stroke-linejoin="round"/>
<path d="M20 36.6667C29.2048 36.6667 36.6667 29.2048 36.6667 20C36.6667 10.7953 29.2048 3.33337 20 3.33337C10.7953 3.33337 3.33337 10.7953 3.33337 20C3.33337 29.2048 10.7953 36.6667 20 36.6667Z" stroke="white" stroke-width="2" stroke-linecap="round" stroke-linejoin="round"/>
</svg>
