<svg width="40" height="40" viewBox="0 0 40 40" fill="none" xmlns="http://www.w3.org/2000/svg">
<path d="M13.3333 36.6667C14.2538 36.6667 15 35.9205 15 35C15 34.0796 14.2538 33.3334 13.3333 33.3334C12.4128 33.3334 11.6666 34.0796 11.6666 35C11.6666 35.9205 12.4128 36.6667 13.3333 36.6667Z" stroke="white" stroke-width="2" stroke-linecap="round" stroke-linejoin="round"/>
<path d="M31.6667 36.6667C32.5871 36.6667 33.3333 35.9205 33.3333 35C33.3333 34.0796 32.5871 33.3334 31.6667 33.3334C30.7462 33.3334 30 34.0796 30 35C30 35.9205 30.7462 36.6667 31.6667 36.6667Z" stroke="white" stroke-width="2" stroke-linecap="round" stroke-linejoin="round"/>
<path d="M3.41663 3.41663H6.74996L11.1833 24.1166C11.3459 24.8747 11.7677 25.5524 12.3761 26.0331C12.9845 26.5137 13.7415 26.7672 14.5166 26.75H30.8166C31.5753 26.7487 32.3108 26.4888 32.9017 26.013C33.4926 25.5373 33.9035 24.8742 34.0666 24.1333L36.8166 11.75H8.53329" stroke="white" stroke-width="2" stroke-linecap="round" stroke-linejoin="round"/>
</svg>
