<svg width="1499" height="1517" viewBox="0 0 1499 1517" fill="none" xmlns="http://www.w3.org/2000/svg">
<path d="M748.206 0.0131531C353.787 0.0131531 30.6827 306.992 0 697.083L402.411 865.028C437.549 840.699 479.28 827.69 522.015 827.742C526.008 827.742 529.955 827.853 533.843 828.07L712.821 566.202V562.535C712.821 404.963 839.826 276.735 995.951 276.735C1152.07 276.735 1279.07 404.963 1279.07 562.535C1279.07 720.101 1152.07 848.382 995.951 848.382C993.784 848.382 991.676 848.33 989.522 848.277L734.264 1032.05C734.428 1035.46 734.533 1038.87 734.533 1042.22C734.533 1160.55 639.189 1256.79 522.015 1256.79C419.158 1256.79 333.1 1182.66 313.654 1084.53L25.8226 964.399C114.96 1282.51 404.513 1515.73 748.206 1515.73C1162.88 1515.73 1499 1176.39 1499 757.873C1499 339.312 1162.88 0.0131531 748.206 0.0131531ZM470.499 1149.94L378.281 1111.47C394.6 1145.83 422.905 1174.58 460.451 1190.36C541.59 1224.51 635.154 1185.66 668.976 1103.68C685.349 1064.27 685.446 1019.97 669.245 980.482C653.037 940.713 622.407 909.694 583.134 893.159C544.078 876.789 502.265 877.38 465.527 891.379L560.825 931.148C620.68 956.333 648.985 1025.71 624.029 1086.13C599.126 1146.54 530.353 1175.12 470.499 1149.94ZM1184.61 562.535C1184.61 457.548 1099.96 372.064 995.968 372.064C891.923 372.064 807.27 457.548 807.27 562.535C807.27 667.529 891.923 752.959 995.968 752.959C1099.96 752.959 1184.61 667.529 1184.61 562.535ZM854.541 562.213C854.541 483.213 918.015 419.184 996.244 419.184C1074.52 419.184 1137.99 483.213 1137.99 562.213C1137.99 641.213 1074.52 705.248 996.238 705.248C918.015 705.248 854.535 641.213 854.535 562.219L854.541 562.213Z" fill="white"/>
</svg>
