<svg width="22" height="22" viewBox="0 0 22 22" fill="none" xmlns="http://www.w3.org/2000/svg">
<path d="M13.475 5.77496C13.307 5.94631 13.213 6.17669 13.213 6.41663C13.213 6.65657 13.307 6.88694 13.475 7.05829L14.9417 8.52496C15.113 8.69292 15.3434 8.787 15.5833 8.787C15.8233 8.787 16.0537 8.69292 16.225 8.52496L19.6808 5.06913C20.1418 6.08772 20.2813 7.22259 20.0809 8.32251C19.8805 9.42243 19.3497 10.4352 18.5591 11.2257C17.7685 12.0163 16.7558 12.5471 15.6559 12.7475C14.556 12.948 13.4211 12.8084 12.4025 12.3475L6.06834 18.6816C5.70367 19.0463 5.20906 19.2512 4.69334 19.2512C4.17761 19.2512 3.68301 19.0463 3.31834 18.6816C2.95367 18.317 2.74879 17.8224 2.74879 17.3066C2.74879 16.7909 2.95367 16.2963 3.31834 15.9316L9.6525 9.59746C9.19157 8.57887 9.05201 7.444 9.25242 6.34408C9.45283 5.24416 9.98368 4.23144 10.7742 3.44087C11.5648 2.65031 12.5775 2.11945 13.6775 1.91904C14.7774 1.71863 15.9122 1.8582 16.9308 2.31913L13.4842 5.76579L13.475 5.77496Z" stroke="white" stroke-width="2" stroke-linecap="round" stroke-linejoin="round"/>
</svg>
